<mxfile host="app.diagrams.net" agent="Mozilla/5.0 (Windows NT 10.0; Win64; x64) AppleWebKit/537.36 (KHTML, like Gecko) Chrome/131.0.0.0 Safari/537.36" version="26.0.3" pages="3">
  <diagram id="prtHgNgQTEPvFCAcTncT" name="中上游智能匹配">
    <mxGraphModel dx="1985" dy="1050" grid="1" gridSize="10" guides="1" tooltips="1" connect="1" arrows="1" fold="1" page="1" pageScale="1" pageWidth="2339" pageHeight="3300" math="0" shadow="0">
      <root>
        <mxCell id="0" />
        <mxCell id="1" parent="0" />
        <mxCell id="G4k473hNy3UlmJ6TiarO-14" value="上游—中游企业匹配" style="swimlane;childLayout=stackLayout;resizeParent=1;resizeParentMax=0;startSize=20;html=1;" parent="1" vertex="1">
          <mxGeometry x="380.00000000000045" y="680" width="1390" height="1410" as="geometry" />
        </mxCell>
        <mxCell id="G4k473hNy3UlmJ6TiarO-15" value="智能单品制造商（中游）" style="swimlane;startSize=20;html=1;" parent="G4k473hNy3UlmJ6TiarO-14" vertex="1">
          <mxGeometry y="20" width="530" height="1390" as="geometry" />
        </mxCell>
        <mxCell id="G4k473hNy3UlmJ6TiarO-25" value="" style="edgeStyle=orthogonalEdgeStyle;html=1;verticalAlign=bottom;endArrow=open;endSize=8;strokeColor=#ff0000;rounded=0;entryX=0.5;entryY=0;entryDx=0;entryDy=0;" parent="G4k473hNy3UlmJ6TiarO-15" source="G4k473hNy3UlmJ6TiarO-24" target="G4k473hNy3UlmJ6TiarO-32" edge="1">
          <mxGeometry relative="1" as="geometry">
            <mxPoint x="192.49999999999955" y="490" as="targetPoint" />
          </mxGeometry>
        </mxCell>
        <mxCell id="G4k473hNy3UlmJ6TiarO-18" value="" style="ellipse;html=1;shape=startState;fillColor=#000000;strokeColor=#ff0000;" parent="G4k473hNy3UlmJ6TiarO-15" vertex="1">
          <mxGeometry x="232.5" y="30" width="20" height="20" as="geometry" />
        </mxCell>
        <mxCell id="G4k473hNy3UlmJ6TiarO-19" value="" style="edgeStyle=orthogonalEdgeStyle;html=1;verticalAlign=bottom;endArrow=open;endSize=8;strokeColor=#ff0000;rounded=0;" parent="G4k473hNy3UlmJ6TiarO-15" source="G4k473hNy3UlmJ6TiarO-18" edge="1">
          <mxGeometry relative="1" as="geometry">
            <mxPoint x="242.49999999999955" y="90" as="targetPoint" />
          </mxGeometry>
        </mxCell>
        <mxCell id="G4k473hNy3UlmJ6TiarO-20" value="上传BOM表（初次需要）" style="rounded=1;whiteSpace=wrap;html=1;arcSize=40;fontColor=#000000;fillColor=#ffffc0;strokeColor=#ff0000;" parent="G4k473hNy3UlmJ6TiarO-15" vertex="1">
          <mxGeometry x="182.49999999999955" y="90" width="120" height="40" as="geometry" />
        </mxCell>
        <mxCell id="G4k473hNy3UlmJ6TiarO-21" value="" style="edgeStyle=orthogonalEdgeStyle;html=1;verticalAlign=bottom;endArrow=open;endSize=8;strokeColor=#ff0000;rounded=0;" parent="G4k473hNy3UlmJ6TiarO-15" source="G4k473hNy3UlmJ6TiarO-20" edge="1">
          <mxGeometry relative="1" as="geometry">
            <mxPoint x="242.49999999999955" y="190" as="targetPoint" />
          </mxGeometry>
        </mxCell>
        <mxCell id="G4k473hNy3UlmJ6TiarO-22" value="发布产品数量需求" style="rounded=1;whiteSpace=wrap;html=1;arcSize=40;fontColor=#000000;fillColor=#ffffc0;strokeColor=#ff0000;" parent="G4k473hNy3UlmJ6TiarO-15" vertex="1">
          <mxGeometry x="182.49999999999955" y="190" width="120" height="40" as="geometry" />
        </mxCell>
        <mxCell id="G4k473hNy3UlmJ6TiarO-23" value="" style="edgeStyle=orthogonalEdgeStyle;html=1;verticalAlign=bottom;endArrow=open;endSize=8;strokeColor=#ff0000;rounded=0;" parent="G4k473hNy3UlmJ6TiarO-15" source="G4k473hNy3UlmJ6TiarO-22" edge="1">
          <mxGeometry relative="1" as="geometry">
            <mxPoint x="242.49999999999955" y="290" as="targetPoint" />
          </mxGeometry>
        </mxCell>
        <mxCell id="G4k473hNy3UlmJ6TiarO-31" style="rounded=0;orthogonalLoop=1;jettySize=auto;html=1;fillColor=#e51400;strokeColor=#FF0000;entryX=0.5;entryY=0;entryDx=0;entryDy=0;" parent="G4k473hNy3UlmJ6TiarO-15" target="G4k473hNy3UlmJ6TiarO-29" edge="1">
          <mxGeometry relative="1" as="geometry">
            <mxPoint x="242.49999999999955" y="295" as="sourcePoint" />
          </mxGeometry>
        </mxCell>
        <mxCell id="G4k473hNy3UlmJ6TiarO-26" value="" style="shape=line;html=1;strokeWidth=6;strokeColor=#ff0000;" parent="G4k473hNy3UlmJ6TiarO-15" vertex="1">
          <mxGeometry x="142.49999999999955" y="290" width="200" height="10" as="geometry" />
        </mxCell>
        <mxCell id="G4k473hNy3UlmJ6TiarO-27" value="" style="html=1;verticalAlign=bottom;endArrow=open;endSize=8;strokeColor=#ff0000;rounded=0;entryX=0.5;entryY=0;entryDx=0;entryDy=0;exitX=0.503;exitY=0.351;exitDx=0;exitDy=0;exitPerimeter=0;" parent="G4k473hNy3UlmJ6TiarO-15" source="G4k473hNy3UlmJ6TiarO-26" target="G4k473hNy3UlmJ6TiarO-24" edge="1">
          <mxGeometry relative="1" as="geometry">
            <mxPoint x="242.49999999999955" y="370" as="targetPoint" />
          </mxGeometry>
        </mxCell>
        <mxCell id="G4k473hNy3UlmJ6TiarO-24" value="根据BOM表自动计算所需硬件材料数量" style="rounded=1;whiteSpace=wrap;html=1;arcSize=40;fontColor=#000000;fillColor=#ffffc0;strokeColor=#ff0000;" parent="G4k473hNy3UlmJ6TiarO-15" vertex="1">
          <mxGeometry x="132.49999999999955" y="370" width="120" height="40" as="geometry" />
        </mxCell>
        <mxCell id="G4k473hNy3UlmJ6TiarO-29" value="技术人员分析需要的软件服务" style="rounded=1;whiteSpace=wrap;html=1;arcSize=40;fontColor=#000000;fillColor=#ffffc0;strokeColor=#ff0000;" parent="G4k473hNy3UlmJ6TiarO-15" vertex="1">
          <mxGeometry x="302.49999999999955" y="370" width="120" height="40" as="geometry" />
        </mxCell>
        <mxCell id="G4k473hNy3UlmJ6TiarO-30" value="" style="edgeStyle=orthogonalEdgeStyle;html=1;verticalAlign=bottom;endArrow=open;endSize=8;strokeColor=#ff0000;rounded=0;" parent="G4k473hNy3UlmJ6TiarO-15" source="G4k473hNy3UlmJ6TiarO-29" edge="1">
          <mxGeometry relative="1" as="geometry">
            <mxPoint x="362.49999999999955" y="470" as="targetPoint" />
          </mxGeometry>
        </mxCell>
        <mxCell id="G4k473hNy3UlmJ6TiarO-32" value="发布硬件材料需求清单" style="rounded=1;whiteSpace=wrap;html=1;arcSize=40;fontColor=#000000;fillColor=#ffffc0;strokeColor=#ff0000;" parent="G4k473hNy3UlmJ6TiarO-15" vertex="1">
          <mxGeometry x="130" y="520" width="125" height="40" as="geometry" />
        </mxCell>
        <mxCell id="G4k473hNy3UlmJ6TiarO-34" value="发布软件服务需求清单" style="rounded=1;whiteSpace=wrap;html=1;arcSize=40;fontColor=#000000;fillColor=#ffffc0;strokeColor=#ff0000;" parent="G4k473hNy3UlmJ6TiarO-15" vertex="1">
          <mxGeometry x="300" y="470" width="125" height="40" as="geometry" />
        </mxCell>
        <mxCell id="G4k473hNy3UlmJ6TiarO-55" style="edgeStyle=orthogonalEdgeStyle;rounded=0;orthogonalLoop=1;jettySize=auto;html=1;entryX=0.5;entryY=0;entryDx=0;entryDy=0;strokeColor=#FF0000;" parent="G4k473hNy3UlmJ6TiarO-15" source="G4k473hNy3UlmJ6TiarO-51" target="G4k473hNy3UlmJ6TiarO-53" edge="1">
          <mxGeometry relative="1" as="geometry" />
        </mxCell>
        <mxCell id="G4k473hNy3UlmJ6TiarO-51" value="系统根据匹配算法自动推荐合适的硬件厂商列表" style="whiteSpace=wrap;html=1;fillColor=#ffffc0;strokeColor=#ff0000;fontColor=#000000;rounded=1;arcSize=40;" parent="G4k473hNy3UlmJ6TiarO-15" vertex="1">
          <mxGeometry x="87.5" y="660" width="210" height="60" as="geometry" />
        </mxCell>
        <mxCell id="G4k473hNy3UlmJ6TiarO-52" value="" style="edgeStyle=orthogonalEdgeStyle;rounded=0;orthogonalLoop=1;jettySize=auto;html=1;strokeColor=#FF0000;" parent="G4k473hNy3UlmJ6TiarO-15" source="G4k473hNy3UlmJ6TiarO-32" target="G4k473hNy3UlmJ6TiarO-51" edge="1">
          <mxGeometry relative="1" as="geometry" />
        </mxCell>
        <mxCell id="G4k473hNy3UlmJ6TiarO-36" value="系统根据匹配算法自动匹配合适的软件厂商列表" style="whiteSpace=wrap;html=1;fillColor=#ffffc0;strokeColor=#ff0000;fontColor=#000000;rounded=1;arcSize=40;" parent="G4k473hNy3UlmJ6TiarO-15" vertex="1">
          <mxGeometry x="288.75" y="580" width="147.5" height="62.5" as="geometry" />
        </mxCell>
        <mxCell id="G4k473hNy3UlmJ6TiarO-37" value="" style="edgeStyle=orthogonalEdgeStyle;rounded=0;orthogonalLoop=1;jettySize=auto;html=1;strokeColor=#ff0000;" parent="G4k473hNy3UlmJ6TiarO-15" source="G4k473hNy3UlmJ6TiarO-34" target="G4k473hNy3UlmJ6TiarO-36" edge="1">
          <mxGeometry relative="1" as="geometry" />
        </mxCell>
        <mxCell id="G4k473hNy3UlmJ6TiarO-53" value="在推荐列表中选择硬件厂商进行合作" style="rounded=1;whiteSpace=wrap;html=1;arcSize=40;fontColor=#000000;fillColor=#ffffc0;strokeColor=#ff0000;" parent="G4k473hNy3UlmJ6TiarO-15" vertex="1">
          <mxGeometry x="116.25" y="780" width="152.5" height="60" as="geometry" />
        </mxCell>
        <mxCell id="G4k473hNy3UlmJ6TiarO-16" value="硬件厂商（上游）" style="swimlane;startSize=20;html=1;" parent="G4k473hNy3UlmJ6TiarO-14" vertex="1">
          <mxGeometry x="530" y="20" width="400" height="1390" as="geometry" />
        </mxCell>
        <mxCell id="G4k473hNy3UlmJ6TiarO-56" value="接受合作" style="rhombus;whiteSpace=wrap;html=1;fontColor=#000000;fillColor=#ffffc0;strokeColor=#ff0000;" parent="G4k473hNy3UlmJ6TiarO-16" vertex="1">
          <mxGeometry x="89.99999999999955" y="790" width="80" height="40" as="geometry" />
        </mxCell>
        <mxCell id="G4k473hNy3UlmJ6TiarO-57" value="no" style="edgeStyle=orthogonalEdgeStyle;html=1;align=left;verticalAlign=bottom;endArrow=open;endSize=8;strokeColor=#ff0000;rounded=0;" parent="G4k473hNy3UlmJ6TiarO-16" source="G4k473hNy3UlmJ6TiarO-56" edge="1">
          <mxGeometry x="-1" relative="1" as="geometry">
            <mxPoint x="279.99999999999955" y="810" as="targetPoint" />
          </mxGeometry>
        </mxCell>
        <mxCell id="G4k473hNy3UlmJ6TiarO-58" value="yes" style="edgeStyle=orthogonalEdgeStyle;html=1;align=left;verticalAlign=top;endArrow=open;endSize=8;strokeColor=#ff0000;rounded=0;" parent="G4k473hNy3UlmJ6TiarO-16" source="G4k473hNy3UlmJ6TiarO-56" edge="1">
          <mxGeometry x="-1" relative="1" as="geometry">
            <mxPoint x="129.99999999999955" y="890" as="targetPoint" />
          </mxGeometry>
        </mxCell>
        <mxCell id="G4k473hNy3UlmJ6TiarO-60" value="询问其他企业" style="rounded=1;whiteSpace=wrap;html=1;arcSize=40;fontColor=#000000;fillColor=#ffffc0;strokeColor=#ff0000;" parent="G4k473hNy3UlmJ6TiarO-16" vertex="1">
          <mxGeometry x="229.99999999999955" y="790" width="120" height="40" as="geometry" />
        </mxCell>
        <mxCell id="G4k473hNy3UlmJ6TiarO-61" value="" style="edgeStyle=orthogonalEdgeStyle;html=1;verticalAlign=bottom;endArrow=open;endSize=8;strokeColor=#ff0000;rounded=0;entryX=0.5;entryY=0;entryDx=0;entryDy=0;exitX=0.5;exitY=0;exitDx=0;exitDy=0;" parent="G4k473hNy3UlmJ6TiarO-16" source="G4k473hNy3UlmJ6TiarO-60" target="G4k473hNy3UlmJ6TiarO-56" edge="1">
          <mxGeometry relative="1" as="geometry">
            <mxPoint x="129.99999999999955" y="779.9999999999998" as="targetPoint" />
            <mxPoint x="289.9999999999998" y="779.9999999999998" as="sourcePoint" />
            <Array as="points">
              <mxPoint x="290" y="760" />
              <mxPoint x="130" y="760" />
            </Array>
          </mxGeometry>
        </mxCell>
        <mxCell id="G4k473hNy3UlmJ6TiarO-62" value="商讨合作细节，签署协议" style="rounded=1;whiteSpace=wrap;html=1;arcSize=40;fontColor=#000000;fillColor=#ffffc0;strokeColor=#ff0000;" parent="G4k473hNy3UlmJ6TiarO-16" vertex="1">
          <mxGeometry x="85" y="890" width="90" height="40" as="geometry" />
        </mxCell>
        <mxCell id="G4k473hNy3UlmJ6TiarO-63" value="" style="edgeStyle=orthogonalEdgeStyle;html=1;verticalAlign=bottom;endArrow=open;endSize=8;strokeColor=#ff0000;rounded=0;" parent="G4k473hNy3UlmJ6TiarO-16" source="G4k473hNy3UlmJ6TiarO-62" edge="1">
          <mxGeometry relative="1" as="geometry">
            <mxPoint x="129.99999999999955" y="990" as="targetPoint" />
          </mxGeometry>
        </mxCell>
        <mxCell id="G4k473hNy3UlmJ6TiarO-64" value="按时交货，验收" style="rounded=1;whiteSpace=wrap;html=1;arcSize=40;fontColor=#000000;fillColor=#ffffc0;strokeColor=#ff0000;" parent="G4k473hNy3UlmJ6TiarO-16" vertex="1">
          <mxGeometry x="69.99999999999955" y="990" width="120" height="40" as="geometry" />
        </mxCell>
        <mxCell id="G4k473hNy3UlmJ6TiarO-65" value="" style="edgeStyle=orthogonalEdgeStyle;html=1;verticalAlign=bottom;endArrow=open;endSize=8;strokeColor=#ff0000;rounded=0;" parent="G4k473hNy3UlmJ6TiarO-16" source="G4k473hNy3UlmJ6TiarO-64" edge="1">
          <mxGeometry relative="1" as="geometry">
            <mxPoint x="129.99999999999955" y="1090" as="targetPoint" />
          </mxGeometry>
        </mxCell>
        <mxCell id="G4k473hNy3UlmJ6TiarO-68" value="服务评分" style="rounded=1;whiteSpace=wrap;html=1;arcSize=40;fontColor=#000000;fillColor=#ffffc0;strokeColor=#ff0000;" parent="G4k473hNy3UlmJ6TiarO-16" vertex="1">
          <mxGeometry x="69.99999999999955" y="1090" width="120" height="40" as="geometry" />
        </mxCell>
        <mxCell id="G4k473hNy3UlmJ6TiarO-69" value="" style="edgeStyle=orthogonalEdgeStyle;html=1;verticalAlign=bottom;endArrow=open;endSize=8;strokeColor=#ff0000;rounded=0;" parent="G4k473hNy3UlmJ6TiarO-16" source="G4k473hNy3UlmJ6TiarO-68" edge="1">
          <mxGeometry relative="1" as="geometry">
            <mxPoint x="129.99999999999955" y="1190" as="targetPoint" />
          </mxGeometry>
        </mxCell>
        <mxCell id="G4k473hNy3UlmJ6TiarO-70" value="加入合作企业列表，便于下次合作" style="rounded=1;whiteSpace=wrap;html=1;arcSize=40;fontColor=#000000;fillColor=#ffffc0;strokeColor=#ff0000;" parent="G4k473hNy3UlmJ6TiarO-16" vertex="1">
          <mxGeometry x="69.99999999999955" y="1190" width="120" height="40" as="geometry" />
        </mxCell>
        <mxCell id="G4k473hNy3UlmJ6TiarO-71" value="" style="edgeStyle=orthogonalEdgeStyle;html=1;verticalAlign=bottom;endArrow=open;endSize=8;strokeColor=#ff0000;rounded=0;" parent="G4k473hNy3UlmJ6TiarO-16" source="G4k473hNy3UlmJ6TiarO-70" edge="1">
          <mxGeometry relative="1" as="geometry">
            <mxPoint x="129.99999999999955" y="1290" as="targetPoint" />
          </mxGeometry>
        </mxCell>
        <mxCell id="G4k473hNy3UlmJ6TiarO-72" value="" style="ellipse;html=1;shape=endState;fillColor=#000000;strokeColor=#ff0000;" parent="G4k473hNy3UlmJ6TiarO-16" vertex="1">
          <mxGeometry x="114.99999999999955" y="1290" width="30" height="30" as="geometry" />
        </mxCell>
        <mxCell id="G4k473hNy3UlmJ6TiarO-75" value="" style="edgeStyle=orthogonalEdgeStyle;rounded=0;orthogonalLoop=1;jettySize=auto;html=1;strokeColor=#FF0000;entryX=0;entryY=0.5;entryDx=0;entryDy=0;" parent="G4k473hNy3UlmJ6TiarO-14" source="G4k473hNy3UlmJ6TiarO-36" target="G4k473hNy3UlmJ6TiarO-76" edge="1">
          <mxGeometry relative="1" as="geometry">
            <mxPoint x="1169.9999999999995" y="630" as="targetPoint" />
          </mxGeometry>
        </mxCell>
        <mxCell id="G4k473hNy3UlmJ6TiarO-54" value="" style="edgeStyle=orthogonalEdgeStyle;html=1;verticalAlign=bottom;endArrow=open;endSize=8;strokeColor=#ff0000;rounded=0;entryX=0;entryY=0.5;entryDx=0;entryDy=0;" parent="G4k473hNy3UlmJ6TiarO-14" source="G4k473hNy3UlmJ6TiarO-53" target="G4k473hNy3UlmJ6TiarO-56" edge="1">
          <mxGeometry relative="1" as="geometry">
            <mxPoint x="649.9999999999995" y="830" as="targetPoint" />
          </mxGeometry>
        </mxCell>
        <mxCell id="G4k473hNy3UlmJ6TiarO-17" value="软件厂商（上游）" style="swimlane;startSize=20;html=1;" parent="G4k473hNy3UlmJ6TiarO-14" vertex="1">
          <mxGeometry x="930" y="20" width="460" height="1390" as="geometry" />
        </mxCell>
        <mxCell id="G4k473hNy3UlmJ6TiarO-76" value="接受合作" style="rhombus;whiteSpace=wrap;html=1;fontColor=#000000;fillColor=#ffffc0;strokeColor=#ff0000;" parent="G4k473hNy3UlmJ6TiarO-17" vertex="1">
          <mxGeometry x="119.99999999999955" y="590" width="80" height="40" as="geometry" />
        </mxCell>
        <mxCell id="G4k473hNy3UlmJ6TiarO-77" value="no" style="edgeStyle=orthogonalEdgeStyle;html=1;align=left;verticalAlign=bottom;endArrow=open;endSize=8;strokeColor=#ff0000;rounded=0;" parent="G4k473hNy3UlmJ6TiarO-17" source="G4k473hNy3UlmJ6TiarO-76" edge="1">
          <mxGeometry x="-1" relative="1" as="geometry">
            <mxPoint x="309.99999999999955" y="610" as="targetPoint" />
          </mxGeometry>
        </mxCell>
        <mxCell id="G4k473hNy3UlmJ6TiarO-78" value="yes" style="edgeStyle=orthogonalEdgeStyle;html=1;align=left;verticalAlign=top;endArrow=open;endSize=8;strokeColor=#ff0000;rounded=0;" parent="G4k473hNy3UlmJ6TiarO-17" source="G4k473hNy3UlmJ6TiarO-76" edge="1">
          <mxGeometry x="-1" relative="1" as="geometry">
            <mxPoint x="159.99999999999955" y="690" as="targetPoint" />
          </mxGeometry>
        </mxCell>
        <mxCell id="G4k473hNy3UlmJ6TiarO-79" value="询问其他企业" style="rounded=1;whiteSpace=wrap;html=1;arcSize=40;fontColor=#000000;fillColor=#ffffc0;strokeColor=#ff0000;" parent="G4k473hNy3UlmJ6TiarO-17" vertex="1">
          <mxGeometry x="259.99999999999955" y="590" width="120" height="40" as="geometry" />
        </mxCell>
        <mxCell id="G4k473hNy3UlmJ6TiarO-80" value="" style="edgeStyle=orthogonalEdgeStyle;html=1;verticalAlign=bottom;endArrow=open;endSize=8;strokeColor=#ff0000;rounded=0;entryX=0.5;entryY=0;entryDx=0;entryDy=0;exitX=0.5;exitY=0;exitDx=0;exitDy=0;" parent="G4k473hNy3UlmJ6TiarO-17" source="G4k473hNy3UlmJ6TiarO-79" target="G4k473hNy3UlmJ6TiarO-76" edge="1">
          <mxGeometry relative="1" as="geometry">
            <mxPoint x="159.99999999999955" y="579.9999999999998" as="targetPoint" />
            <mxPoint x="319.9999999999998" y="579.9999999999998" as="sourcePoint" />
            <Array as="points">
              <mxPoint x="320" y="560" />
              <mxPoint x="160" y="560" />
            </Array>
          </mxGeometry>
        </mxCell>
        <mxCell id="ckavIdwdktaXO-kbaoQL-2" value="" style="edgeStyle=orthogonalEdgeStyle;rounded=0;orthogonalLoop=1;jettySize=auto;html=1;strokeColor=#FF0000;" parent="G4k473hNy3UlmJ6TiarO-17" source="G4k473hNy3UlmJ6TiarO-81" target="ckavIdwdktaXO-kbaoQL-1" edge="1">
          <mxGeometry relative="1" as="geometry" />
        </mxCell>
        <mxCell id="G4k473hNy3UlmJ6TiarO-81" value="商讨合作细节，签署协议" style="rounded=1;whiteSpace=wrap;html=1;arcSize=40;fontColor=#000000;fillColor=#ffffc0;strokeColor=#ff0000;" parent="G4k473hNy3UlmJ6TiarO-17" vertex="1">
          <mxGeometry x="115" y="690" width="90" height="40" as="geometry" />
        </mxCell>
        <mxCell id="G4k473hNy3UlmJ6TiarO-83" value="按时交货，验收" style="rounded=1;whiteSpace=wrap;html=1;arcSize=40;fontColor=#000000;fillColor=#ffffc0;strokeColor=#ff0000;" parent="G4k473hNy3UlmJ6TiarO-17" vertex="1">
          <mxGeometry x="99.99999999999955" y="870" width="120" height="40" as="geometry" />
        </mxCell>
        <mxCell id="G4k473hNy3UlmJ6TiarO-84" value="" style="edgeStyle=orthogonalEdgeStyle;html=1;verticalAlign=bottom;endArrow=open;endSize=8;strokeColor=#ff0000;rounded=0;" parent="G4k473hNy3UlmJ6TiarO-17" source="G4k473hNy3UlmJ6TiarO-83" edge="1">
          <mxGeometry relative="1" as="geometry">
            <mxPoint x="159.99999999999955" y="980" as="targetPoint" />
          </mxGeometry>
        </mxCell>
        <mxCell id="G4k473hNy3UlmJ6TiarO-85" value="服务评分" style="rounded=1;whiteSpace=wrap;html=1;arcSize=40;fontColor=#000000;fillColor=#ffffc0;strokeColor=#ff0000;" parent="G4k473hNy3UlmJ6TiarO-17" vertex="1">
          <mxGeometry x="99.99999999999955" y="980" width="120" height="40" as="geometry" />
        </mxCell>
        <mxCell id="G4k473hNy3UlmJ6TiarO-86" value="" style="edgeStyle=orthogonalEdgeStyle;html=1;verticalAlign=bottom;endArrow=open;endSize=8;strokeColor=#ff0000;rounded=0;" parent="G4k473hNy3UlmJ6TiarO-17" source="G4k473hNy3UlmJ6TiarO-85" edge="1">
          <mxGeometry relative="1" as="geometry">
            <mxPoint x="159.99999999999955" y="1080" as="targetPoint" />
          </mxGeometry>
        </mxCell>
        <mxCell id="G4k473hNy3UlmJ6TiarO-87" value="加入合作企业列表，便于下次合作" style="rounded=1;whiteSpace=wrap;html=1;arcSize=50;fontColor=#000000;fillColor=#ffffc0;strokeColor=#ff0000;" parent="G4k473hNy3UlmJ6TiarO-17" vertex="1">
          <mxGeometry x="99.99999999999955" y="1080" width="120" height="40" as="geometry" />
        </mxCell>
        <mxCell id="G4k473hNy3UlmJ6TiarO-88" value="" style="edgeStyle=orthogonalEdgeStyle;html=1;verticalAlign=bottom;endArrow=open;endSize=8;strokeColor=#ff0000;rounded=0;" parent="G4k473hNy3UlmJ6TiarO-17" source="G4k473hNy3UlmJ6TiarO-87" edge="1">
          <mxGeometry relative="1" as="geometry">
            <mxPoint x="159.99999999999955" y="1180" as="targetPoint" />
          </mxGeometry>
        </mxCell>
        <mxCell id="G4k473hNy3UlmJ6TiarO-89" value="" style="ellipse;html=1;shape=endState;fillColor=#000000;strokeColor=#ff0000;" parent="G4k473hNy3UlmJ6TiarO-17" vertex="1">
          <mxGeometry x="144.99999999999955" y="1180" width="30" height="30" as="geometry" />
        </mxCell>
        <mxCell id="ckavIdwdktaXO-kbaoQL-3" style="edgeStyle=orthogonalEdgeStyle;rounded=0;orthogonalLoop=1;jettySize=auto;html=1;entryX=0.5;entryY=0;entryDx=0;entryDy=0;strokeColor=#FF0000;" parent="G4k473hNy3UlmJ6TiarO-17" source="ckavIdwdktaXO-kbaoQL-1" target="G4k473hNy3UlmJ6TiarO-83" edge="1">
          <mxGeometry relative="1" as="geometry" />
        </mxCell>
        <mxCell id="ckavIdwdktaXO-kbaoQL-1" value="开发过程中双方技术人员沟通业务需求细节以及业务变更" style="whiteSpace=wrap;html=1;fillColor=#ffffc0;strokeColor=#ff0000;fontColor=#000000;rounded=1;arcSize=40;" parent="G4k473hNy3UlmJ6TiarO-17" vertex="1">
          <mxGeometry x="100" y="770" width="120" height="50" as="geometry" />
        </mxCell>
      </root>
    </mxGraphModel>
  </diagram>
  <diagram id="7u9bPi9LvH8Y9y0cHNrz" name="中下游智能匹配">
    <mxGraphModel grid="1" page="1" gridSize="10" guides="1" tooltips="1" connect="1" arrows="1" fold="1" pageScale="1" pageWidth="2339" pageHeight="3300" math="0" shadow="0">
      <root>
        <mxCell id="0" />
        <mxCell id="1" parent="0" />
        <mxCell id="-WsMVcNiUiyNvO5i9aUW-1" value="中游——下游企业匹配" style="swimlane;childLayout=stackLayout;resizeParent=1;resizeParentMax=0;startSize=20;html=1;" vertex="1" parent="1">
          <mxGeometry x="610.0000000000005" y="440" width="930" height="1010" as="geometry" />
        </mxCell>
        <mxCell id="-WsMVcNiUiyNvO5i9aUW-2" value="智能单品制造商（中游）" style="swimlane;startSize=20;html=1;" vertex="1" parent="-WsMVcNiUiyNvO5i9aUW-1">
          <mxGeometry y="20" width="470" height="990" as="geometry" />
        </mxCell>
        <mxCell id="-WsMVcNiUiyNvO5i9aUW-3" value="接受合作" style="rhombus;whiteSpace=wrap;html=1;fontColor=#000000;fillColor=#ffffc0;strokeColor=#ff0000;" vertex="1" parent="-WsMVcNiUiyNvO5i9aUW-2">
          <mxGeometry x="299.99999999999955" y="326" width="80" height="40" as="geometry" />
        </mxCell>
        <mxCell id="-WsMVcNiUiyNvO5i9aUW-4" value="no" style="edgeStyle=orthogonalEdgeStyle;html=1;align=left;verticalAlign=bottom;endArrow=open;endSize=8;strokeColor=#ff0000;rounded=0;entryX=1;entryY=0.5;entryDx=0;entryDy=0;" edge="1" parent="-WsMVcNiUiyNvO5i9aUW-2" source="-WsMVcNiUiyNvO5i9aUW-3" target="-WsMVcNiUiyNvO5i9aUW-6">
          <mxGeometry x="-1" relative="1" as="geometry">
            <mxPoint x="209.99999999999955" y="346" as="targetPoint" />
          </mxGeometry>
        </mxCell>
        <mxCell id="-WsMVcNiUiyNvO5i9aUW-5" value="yes" style="edgeStyle=orthogonalEdgeStyle;html=1;align=left;verticalAlign=top;endArrow=open;endSize=8;strokeColor=#ff0000;rounded=0;entryX=0.5;entryY=0;entryDx=0;entryDy=0;" edge="1" parent="-WsMVcNiUiyNvO5i9aUW-2" source="-WsMVcNiUiyNvO5i9aUW-3" target="-WsMVcNiUiyNvO5i9aUW-8">
          <mxGeometry x="-1" relative="1" as="geometry">
            <mxPoint x="339.99999999999955" y="410" as="targetPoint" />
          </mxGeometry>
        </mxCell>
        <mxCell id="-WsMVcNiUiyNvO5i9aUW-6" value="从列表中选择其他企业进行合作" style="rounded=1;whiteSpace=wrap;html=1;arcSize=40;fontColor=#000000;fillColor=#ffffc0;strokeColor=#ff0000;" vertex="1" parent="-WsMVcNiUiyNvO5i9aUW-2">
          <mxGeometry x="79.99999999999955" y="326" width="120" height="40" as="geometry" />
        </mxCell>
        <mxCell id="-WsMVcNiUiyNvO5i9aUW-7" value="" style="edgeStyle=orthogonalEdgeStyle;html=1;verticalAlign=bottom;endArrow=open;endSize=8;strokeColor=#ff0000;rounded=0;entryX=0.5;entryY=0;entryDx=0;entryDy=0;" edge="1" parent="-WsMVcNiUiyNvO5i9aUW-2" source="-WsMVcNiUiyNvO5i9aUW-6" target="-WsMVcNiUiyNvO5i9aUW-3">
          <mxGeometry relative="1" as="geometry">
            <mxPoint x="259.99999999999955" y="220" as="targetPoint" />
            <Array as="points">
              <mxPoint x="140" y="290" />
              <mxPoint x="340" y="290" />
            </Array>
          </mxGeometry>
        </mxCell>
        <mxCell id="-WsMVcNiUiyNvO5i9aUW-8" value="商讨交易细节，签署协议" style="rounded=1;whiteSpace=wrap;html=1;arcSize=40;fontColor=#000000;fillColor=#ffffc0;strokeColor=#ff0000;" vertex="1" parent="-WsMVcNiUiyNvO5i9aUW-2">
          <mxGeometry x="280" y="420" width="120" height="40" as="geometry" />
        </mxCell>
        <mxCell id="-WsMVcNiUiyNvO5i9aUW-9" value="" style="edgeStyle=orthogonalEdgeStyle;html=1;verticalAlign=bottom;endArrow=open;endSize=8;strokeColor=#ff0000;rounded=0;entryX=0.5;entryY=0;entryDx=0;entryDy=0;" edge="1" parent="-WsMVcNiUiyNvO5i9aUW-2" source="-WsMVcNiUiyNvO5i9aUW-8" target="-WsMVcNiUiyNvO5i9aUW-10">
          <mxGeometry relative="1" as="geometry">
            <mxPoint x="339.99999999999955" y="510" as="targetPoint" />
          </mxGeometry>
        </mxCell>
        <mxCell id="-WsMVcNiUiyNvO5i9aUW-10" value="按时交货，验收" style="rounded=1;whiteSpace=wrap;html=1;arcSize=40;fontColor=#000000;fillColor=#ffffc0;strokeColor=#ff0000;" vertex="1" parent="-WsMVcNiUiyNvO5i9aUW-2">
          <mxGeometry x="279.99999999999955" y="525" width="120" height="40" as="geometry" />
        </mxCell>
        <mxCell id="-WsMVcNiUiyNvO5i9aUW-11" value="" style="edgeStyle=orthogonalEdgeStyle;html=1;verticalAlign=bottom;endArrow=open;endSize=8;strokeColor=#ff0000;rounded=0;" edge="1" parent="-WsMVcNiUiyNvO5i9aUW-2" source="-WsMVcNiUiyNvO5i9aUW-10">
          <mxGeometry relative="1" as="geometry">
            <mxPoint x="339.99999999999955" y="625" as="targetPoint" />
          </mxGeometry>
        </mxCell>
        <mxCell id="-WsMVcNiUiyNvO5i9aUW-12" value="服务评分" style="rounded=1;whiteSpace=wrap;html=1;arcSize=40;fontColor=#000000;fillColor=#ffffc0;strokeColor=#ff0000;" vertex="1" parent="-WsMVcNiUiyNvO5i9aUW-2">
          <mxGeometry x="279.99999999999955" y="625" width="120" height="40" as="geometry" />
        </mxCell>
        <mxCell id="-WsMVcNiUiyNvO5i9aUW-13" value="" style="edgeStyle=orthogonalEdgeStyle;html=1;verticalAlign=bottom;endArrow=open;endSize=8;strokeColor=#ff0000;rounded=0;" edge="1" parent="-WsMVcNiUiyNvO5i9aUW-2" source="-WsMVcNiUiyNvO5i9aUW-12">
          <mxGeometry relative="1" as="geometry">
            <mxPoint x="339.99999999999955" y="725" as="targetPoint" />
          </mxGeometry>
        </mxCell>
        <mxCell id="-WsMVcNiUiyNvO5i9aUW-14" value="加入合作企业列表，便于下次合作" style="rounded=1;whiteSpace=wrap;html=1;arcSize=40;fontColor=#000000;fillColor=#ffffc0;strokeColor=#ff0000;" vertex="1" parent="-WsMVcNiUiyNvO5i9aUW-2">
          <mxGeometry x="279.99999999999955" y="725" width="120" height="40" as="geometry" />
        </mxCell>
        <mxCell id="-WsMVcNiUiyNvO5i9aUW-15" value="" style="edgeStyle=orthogonalEdgeStyle;html=1;verticalAlign=bottom;endArrow=open;endSize=8;strokeColor=#ff0000;rounded=0;" edge="1" parent="-WsMVcNiUiyNvO5i9aUW-2" source="-WsMVcNiUiyNvO5i9aUW-14">
          <mxGeometry relative="1" as="geometry">
            <mxPoint x="339.99999999999955" y="825" as="targetPoint" />
          </mxGeometry>
        </mxCell>
        <mxCell id="-WsMVcNiUiyNvO5i9aUW-16" value="" style="ellipse;html=1;shape=endState;fillColor=#000000;strokeColor=#ff0000;" vertex="1" parent="-WsMVcNiUiyNvO5i9aUW-2">
          <mxGeometry x="324.99999999999955" y="825" width="30" height="30" as="geometry" />
        </mxCell>
        <mxCell id="-WsMVcNiUiyNvO5i9aUW-17" value="家具城（下游）" style="swimlane;startSize=20;html=1;" vertex="1" parent="-WsMVcNiUiyNvO5i9aUW-1">
          <mxGeometry x="470" y="20" width="460" height="990" as="geometry" />
        </mxCell>
        <mxCell id="-WsMVcNiUiyNvO5i9aUW-18" value="" style="ellipse;html=1;shape=startState;fillColor=#000000;strokeColor=#ff0000;" vertex="1" parent="-WsMVcNiUiyNvO5i9aUW-17">
          <mxGeometry x="214.99999999999955" y="50" width="30" height="30" as="geometry" />
        </mxCell>
        <mxCell id="-WsMVcNiUiyNvO5i9aUW-19" value="" style="edgeStyle=orthogonalEdgeStyle;html=1;verticalAlign=bottom;endArrow=open;endSize=8;strokeColor=#ff0000;rounded=0;entryX=0.5;entryY=0;entryDx=0;entryDy=0;" edge="1" parent="-WsMVcNiUiyNvO5i9aUW-17" source="-WsMVcNiUiyNvO5i9aUW-18" target="-WsMVcNiUiyNvO5i9aUW-20">
          <mxGeometry relative="1" as="geometry">
            <mxPoint x="229.99999999999955" y="110" as="targetPoint" />
          </mxGeometry>
        </mxCell>
        <mxCell id="-WsMVcNiUiyNvO5i9aUW-20" value="发布产品数量需求" style="rounded=1;whiteSpace=wrap;html=1;arcSize=40;fontColor=#000000;fillColor=#ffffc0;strokeColor=#ff0000;" vertex="1" parent="-WsMVcNiUiyNvO5i9aUW-17">
          <mxGeometry x="169.99999999999955" y="120" width="120" height="40" as="geometry" />
        </mxCell>
        <mxCell id="-WsMVcNiUiyNvO5i9aUW-21" value="" style="edgeStyle=orthogonalEdgeStyle;html=1;verticalAlign=bottom;endArrow=open;endSize=8;strokeColor=#ff0000;rounded=0;entryX=0.5;entryY=0;entryDx=0;entryDy=0;" edge="1" parent="-WsMVcNiUiyNvO5i9aUW-17" source="-WsMVcNiUiyNvO5i9aUW-20" target="-WsMVcNiUiyNvO5i9aUW-22">
          <mxGeometry relative="1" as="geometry">
            <mxPoint x="229.99999999999955" y="210" as="targetPoint" />
          </mxGeometry>
        </mxCell>
        <mxCell id="-WsMVcNiUiyNvO5i9aUW-22" value="系统根据匹配算法自动匹配合适的中游厂商列表" style="rounded=1;whiteSpace=wrap;html=1;arcSize=40;fontColor=#000000;fillColor=#ffffc0;strokeColor=#ff0000;" vertex="1" parent="-WsMVcNiUiyNvO5i9aUW-17">
          <mxGeometry x="157.5" y="220" width="145" height="50" as="geometry" />
        </mxCell>
        <mxCell id="-WsMVcNiUiyNvO5i9aUW-23" value="" style="edgeStyle=orthogonalEdgeStyle;html=1;verticalAlign=bottom;endArrow=open;endSize=8;strokeColor=#ff0000;rounded=0;entryX=0.5;entryY=0;entryDx=0;entryDy=0;" edge="1" parent="-WsMVcNiUiyNvO5i9aUW-17" source="-WsMVcNiUiyNvO5i9aUW-22" target="-WsMVcNiUiyNvO5i9aUW-24">
          <mxGeometry relative="1" as="geometry">
            <mxPoint x="229.99999999999955" y="320" as="targetPoint" />
          </mxGeometry>
        </mxCell>
        <mxCell id="-WsMVcNiUiyNvO5i9aUW-24" value="在推荐列表中选择厂商发送进行合作" style="rounded=1;whiteSpace=wrap;html=1;arcSize=40;fontColor=#000000;fillColor=#ffffc0;strokeColor=#ff0000;" vertex="1" parent="-WsMVcNiUiyNvO5i9aUW-17">
          <mxGeometry x="169.99999999999955" y="326" width="120" height="40" as="geometry" />
        </mxCell>
        <mxCell id="-WsMVcNiUiyNvO5i9aUW-25" value="" style="edgeStyle=orthogonalEdgeStyle;html=1;verticalAlign=bottom;endArrow=open;endSize=8;strokeColor=#ff0000;rounded=0;entryX=1;entryY=0.5;entryDx=0;entryDy=0;" edge="1" parent="-WsMVcNiUiyNvO5i9aUW-1" source="-WsMVcNiUiyNvO5i9aUW-24" target="-WsMVcNiUiyNvO5i9aUW-3">
          <mxGeometry relative="1" as="geometry">
            <mxPoint x="279.99999999999955" y="366" as="targetPoint" />
          </mxGeometry>
        </mxCell>
      </root>
    </mxGraphModel>
  </diagram>
  <diagram id="WC9jFhKxyjIKSGYVOIR_" name="共享仓储">
    <mxGraphModel dx="2647" dy="1400" grid="1" gridSize="10" guides="1" tooltips="1" connect="1" arrows="1" fold="1" page="1" pageScale="1" pageWidth="2339" pageHeight="3300" math="0" shadow="0">
      <root>
        <mxCell id="0" />
        <mxCell id="1" parent="0" />
        <mxCell id="C_MoCRyomVMBf11L0ub7-1" value="共享仓储" style="swimlane;childLayout=stackLayout;resizeParent=1;resizeParentMax=0;startSize=20;html=1;" vertex="1" parent="1">
          <mxGeometry x="620.0000000000005" y="180" width="1170" height="880" as="geometry" />
        </mxCell>
        <mxCell id="C_MoCRyomVMBf11L0ub7-2" value="server" style="swimlane;startSize=20;html=1;" vertex="1" parent="C_MoCRyomVMBf11L0ub7-1">
          <mxGeometry y="20" width="570" height="860" as="geometry" />
        </mxCell>
        <mxCell id="C_MoCRyomVMBf11L0ub7-3" value="client" style="swimlane;startSize=20;html=1;" vertex="1" parent="C_MoCRyomVMBf11L0ub7-1">
          <mxGeometry x="570" y="20" width="600" height="860" as="geometry" />
        </mxCell>
        <mxCell id="C_MoCRyomVMBf11L0ub7-4" value="" style="edgeStyle=orthogonalEdgeStyle;html=1;verticalAlign=bottom;endArrow=open;endSize=8;strokeColor=#ff0000;rounded=0;entryX=0;entryY=0.5;entryDx=0;entryDy=0;" edge="1" parent="C_MoCRyomVMBf11L0ub7-3" source="C_MoCRyomVMBf11L0ub7-10" target="C_MoCRyomVMBf11L0ub7-15">
          <mxGeometry relative="1" as="geometry">
            <mxPoint x="109.99999999999955" y="180" as="targetPoint" />
          </mxGeometry>
        </mxCell>
        <mxCell id="C_MoCRyomVMBf11L0ub7-5" value="no" style="edgeStyle=orthogonalEdgeStyle;html=1;align=left;verticalAlign=bottom;endArrow=open;endSize=8;strokeColor=#ff0000;rounded=0;entryX=0.5;entryY=0;entryDx=0;entryDy=0;" edge="1" parent="C_MoCRyomVMBf11L0ub7-3" source="C_MoCRyomVMBf11L0ub7-16" target="C_MoCRyomVMBf11L0ub7-11">
          <mxGeometry x="-1" relative="1" as="geometry">
            <mxPoint x="119.99999999999955" y="295" as="targetPoint" />
            <Array as="points">
              <mxPoint x="-240" y="295" />
            </Array>
          </mxGeometry>
        </mxCell>
        <mxCell id="C_MoCRyomVMBf11L0ub7-6" value="" style="edgeStyle=orthogonalEdgeStyle;html=1;verticalAlign=bottom;endArrow=open;endSize=8;strokeColor=#ff0000;rounded=0;entryX=0.5;entryY=1;entryDx=0;entryDy=0;" edge="1" parent="C_MoCRyomVMBf11L0ub7-3" source="C_MoCRyomVMBf11L0ub7-26" target="C_MoCRyomVMBf11L0ub7-11">
          <mxGeometry relative="1" as="geometry">
            <mxPoint x="-150.00000000000045" y="420" as="targetPoint" />
          </mxGeometry>
        </mxCell>
        <mxCell id="C_MoCRyomVMBf11L0ub7-7" value="" style="edgeStyle=orthogonalEdgeStyle;html=1;verticalAlign=bottom;endArrow=open;endSize=8;strokeColor=#ff0000;rounded=0;entryX=0;entryY=0.5;entryDx=0;entryDy=0;" edge="1" parent="C_MoCRyomVMBf11L0ub7-3" source="C_MoCRyomVMBf11L0ub7-13" target="C_MoCRyomVMBf11L0ub7-28">
          <mxGeometry relative="1" as="geometry">
            <mxPoint x="159.99999999999955" y="670" as="targetPoint" />
            <Array as="points">
              <mxPoint x="-330" y="770" />
              <mxPoint x="165" y="770" />
            </Array>
          </mxGeometry>
        </mxCell>
        <mxCell id="C_MoCRyomVMBf11L0ub7-8" value="" style="ellipse;html=1;shape=startState;fillColor=#000000;strokeColor=#ff0000;" vertex="1" parent="C_MoCRyomVMBf11L0ub7-3">
          <mxGeometry x="-285.00000000000045" y="70" width="30" height="30" as="geometry" />
        </mxCell>
        <mxCell id="C_MoCRyomVMBf11L0ub7-9" value="" style="edgeStyle=orthogonalEdgeStyle;html=1;verticalAlign=bottom;endArrow=open;endSize=8;strokeColor=#ff0000;rounded=0;entryX=0.5;entryY=0;entryDx=0;entryDy=0;" edge="1" parent="C_MoCRyomVMBf11L0ub7-3" source="C_MoCRyomVMBf11L0ub7-8" target="C_MoCRyomVMBf11L0ub7-10">
          <mxGeometry relative="1" as="geometry">
            <mxPoint x="-270.00000000000045" y="160" as="targetPoint" />
          </mxGeometry>
        </mxCell>
        <mxCell id="C_MoCRyomVMBf11L0ub7-10" value="将企业闲置空间信息发布到平台上并及时更新" style="rounded=1;whiteSpace=wrap;html=1;arcSize=40;fontColor=#000000;fillColor=#ffffc0;strokeColor=#ff0000;" vertex="1" parent="C_MoCRyomVMBf11L0ub7-3">
          <mxGeometry x="-330" y="150" width="120" height="60" as="geometry" />
        </mxCell>
        <mxCell id="C_MoCRyomVMBf11L0ub7-11" value="双方签订协议" style="rounded=1;whiteSpace=wrap;html=1;arcSize=40;fontColor=#000000;fillColor=#ffffc0;strokeColor=#ff0000;" vertex="1" parent="C_MoCRyomVMBf11L0ub7-3">
          <mxGeometry x="-300.00000000000045" y="440" width="120" height="40" as="geometry" />
        </mxCell>
        <mxCell id="C_MoCRyomVMBf11L0ub7-12" value="" style="edgeStyle=orthogonalEdgeStyle;html=1;verticalAlign=bottom;endArrow=open;endSize=8;strokeColor=#ff0000;rounded=0;entryX=0.5;entryY=0;entryDx=0;entryDy=0;exitX=0;exitY=0.5;exitDx=0;exitDy=0;" edge="1" parent="C_MoCRyomVMBf11L0ub7-3" source="C_MoCRyomVMBf11L0ub7-11" target="C_MoCRyomVMBf11L0ub7-13">
          <mxGeometry relative="1" as="geometry">
            <mxPoint x="-260.00000000000045" y="370" as="targetPoint" />
          </mxGeometry>
        </mxCell>
        <mxCell id="C_MoCRyomVMBf11L0ub7-13" value="到期后系统给双方企业发送系统通知和邮件提醒" style="rounded=1;whiteSpace=wrap;html=1;arcSize=40;fontColor=#000000;fillColor=#ffffc0;strokeColor=#ff0000;" vertex="1" parent="C_MoCRyomVMBf11L0ub7-3">
          <mxGeometry x="-390" y="580" width="120" height="50" as="geometry" />
        </mxCell>
        <mxCell id="C_MoCRyomVMBf11L0ub7-14" value="" style="edgeStyle=orthogonalEdgeStyle;rounded=0;orthogonalLoop=1;jettySize=auto;html=1;strokeColor=#FF0000;entryX=0.5;entryY=0;entryDx=0;entryDy=0;" edge="1" parent="C_MoCRyomVMBf11L0ub7-3" source="C_MoCRyomVMBf11L0ub7-15" target="C_MoCRyomVMBf11L0ub7-16">
          <mxGeometry relative="1" as="geometry">
            <mxPoint x="329.99999999999955" y="270" as="targetPoint" />
          </mxGeometry>
        </mxCell>
        <mxCell id="C_MoCRyomVMBf11L0ub7-15" value="选中合适的闲置空间进行预约" style="rounded=1;whiteSpace=wrap;html=1;arcSize=40;fontColor=#000000;fillColor=#ffffc0;strokeColor=#ff0000;" vertex="1" parent="C_MoCRyomVMBf11L0ub7-3">
          <mxGeometry x="269.99999999999955" y="160" width="120" height="40" as="geometry" />
        </mxCell>
        <mxCell id="C_MoCRyomVMBf11L0ub7-16" value="有其他疑问" style="rhombus;whiteSpace=wrap;html=1;fontColor=#000000;fillColor=#ffffc0;strokeColor=#ff0000;" vertex="1" parent="C_MoCRyomVMBf11L0ub7-3">
          <mxGeometry x="275" y="270" width="110" height="50" as="geometry" />
        </mxCell>
        <mxCell id="C_MoCRyomVMBf11L0ub7-17" value="yes" style="edgeStyle=orthogonalEdgeStyle;html=1;align=left;verticalAlign=top;endArrow=open;endSize=8;strokeColor=#ff0000;rounded=0;entryX=0.5;entryY=0;entryDx=0;entryDy=0;" edge="1" parent="C_MoCRyomVMBf11L0ub7-3" source="C_MoCRyomVMBf11L0ub7-16" target="C_MoCRyomVMBf11L0ub7-18">
          <mxGeometry x="-1" relative="1" as="geometry">
            <mxPoint x="329.99999999999955" y="380" as="targetPoint" />
          </mxGeometry>
        </mxCell>
        <mxCell id="C_MoCRyomVMBf11L0ub7-18" value="与对方企业进行商谈，交流相关细节" style="rounded=1;whiteSpace=wrap;html=1;arcSize=40;fontColor=#000000;fillColor=#ffffc0;strokeColor=#ff0000;" vertex="1" parent="C_MoCRyomVMBf11L0ub7-3">
          <mxGeometry x="269.99999999999955" y="380" width="120" height="40" as="geometry" />
        </mxCell>
        <mxCell id="C_MoCRyomVMBf11L0ub7-19" value="" style="edgeStyle=orthogonalEdgeStyle;html=1;verticalAlign=bottom;endArrow=open;endSize=8;strokeColor=#ff0000;rounded=0;entryX=0.5;entryY=0;entryDx=0;entryDy=0;" edge="1" parent="C_MoCRyomVMBf11L0ub7-3" source="C_MoCRyomVMBf11L0ub7-18" target="C_MoCRyomVMBf11L0ub7-20">
          <mxGeometry relative="1" as="geometry">
            <mxPoint x="329.99999999999955" y="470" as="targetPoint" />
          </mxGeometry>
        </mxCell>
        <mxCell id="C_MoCRyomVMBf11L0ub7-20" value="对方在线" style="rhombus;whiteSpace=wrap;html=1;fontColor=#000000;fillColor=#ffffc0;strokeColor=#ff0000;" vertex="1" parent="C_MoCRyomVMBf11L0ub7-3">
          <mxGeometry x="289.99999999999955" y="480" width="80" height="40" as="geometry" />
        </mxCell>
        <mxCell id="C_MoCRyomVMBf11L0ub7-21" value="no" style="edgeStyle=orthogonalEdgeStyle;html=1;align=left;verticalAlign=bottom;endArrow=open;endSize=8;strokeColor=#ff0000;rounded=0;entryX=1;entryY=0.5;entryDx=0;entryDy=0;" edge="1" parent="C_MoCRyomVMBf11L0ub7-3" source="C_MoCRyomVMBf11L0ub7-20" target="C_MoCRyomVMBf11L0ub7-23">
          <mxGeometry x="-1" relative="1" as="geometry">
            <mxPoint x="219.99999999999955" y="500" as="targetPoint" />
          </mxGeometry>
        </mxCell>
        <mxCell id="C_MoCRyomVMBf11L0ub7-22" value="yes" style="edgeStyle=orthogonalEdgeStyle;html=1;align=left;verticalAlign=top;endArrow=open;endSize=8;strokeColor=#ff0000;rounded=0;entryX=1;entryY=0.5;entryDx=0;entryDy=0;" edge="1" parent="C_MoCRyomVMBf11L0ub7-3" source="C_MoCRyomVMBf11L0ub7-20" target="C_MoCRyomVMBf11L0ub7-26">
          <mxGeometry x="-1" relative="1" as="geometry">
            <mxPoint x="329.99999999999955" y="580" as="targetPoint" />
            <Array as="points">
              <mxPoint x="330" y="580" />
            </Array>
          </mxGeometry>
        </mxCell>
        <mxCell id="C_MoCRyomVMBf11L0ub7-23" value="愿意等待" style="rhombus;whiteSpace=wrap;html=1;fontColor=#000000;fillColor=#ffffc0;strokeColor=#ff0000;" vertex="1" parent="C_MoCRyomVMBf11L0ub7-3">
          <mxGeometry x="139.99999999999955" y="480" width="80" height="40" as="geometry" />
        </mxCell>
        <mxCell id="C_MoCRyomVMBf11L0ub7-24" value="no" style="edgeStyle=orthogonalEdgeStyle;html=1;align=left;verticalAlign=bottom;endArrow=open;endSize=8;strokeColor=#ff0000;rounded=0;entryX=0.5;entryY=1;entryDx=0;entryDy=0;" edge="1" parent="C_MoCRyomVMBf11L0ub7-3" source="C_MoCRyomVMBf11L0ub7-23" target="C_MoCRyomVMBf11L0ub7-27">
          <mxGeometry x="-1" relative="1" as="geometry">
            <mxPoint x="179.99999999999955" y="440" as="targetPoint" />
          </mxGeometry>
        </mxCell>
        <mxCell id="C_MoCRyomVMBf11L0ub7-25" value="yes" style="edgeStyle=orthogonalEdgeStyle;html=1;align=left;verticalAlign=top;endArrow=open;endSize=8;strokeColor=#ff0000;rounded=0;entryX=0.5;entryY=0;entryDx=0;entryDy=0;" edge="1" parent="C_MoCRyomVMBf11L0ub7-3" source="C_MoCRyomVMBf11L0ub7-23" target="C_MoCRyomVMBf11L0ub7-26">
          <mxGeometry x="-1" relative="1" as="geometry">
            <mxPoint x="179.99999999999955" y="570" as="targetPoint" />
          </mxGeometry>
        </mxCell>
        <mxCell id="C_MoCRyomVMBf11L0ub7-26" value="【对方上线后】商讨相关细节" style="rounded=1;whiteSpace=wrap;html=1;arcSize=40;fontColor=#000000;fillColor=#ffffc0;strokeColor=#ff0000;" vertex="1" parent="C_MoCRyomVMBf11L0ub7-3">
          <mxGeometry x="119.99999999999955" y="560" width="120" height="40" as="geometry" />
        </mxCell>
        <mxCell id="C_MoCRyomVMBf11L0ub7-27" value="" style="ellipse;html=1;shape=endState;fillColor=#000000;strokeColor=#ff0000;" vertex="1" parent="C_MoCRyomVMBf11L0ub7-3">
          <mxGeometry x="164.99999999999955" y="420" width="30" height="30" as="geometry" />
        </mxCell>
        <mxCell id="C_MoCRyomVMBf11L0ub7-28" value="给对方服务打分" style="rounded=1;whiteSpace=wrap;html=1;arcSize=40;fontColor=#000000;fillColor=#ffffc0;strokeColor=#ff0000;" vertex="1" parent="C_MoCRyomVMBf11L0ub7-3">
          <mxGeometry x="219.99999999999955" y="750" width="120" height="40" as="geometry" />
        </mxCell>
        <mxCell id="C_MoCRyomVMBf11L0ub7-29" value="" style="ellipse;html=1;shape=endState;fillColor=#000000;strokeColor=#ff0000;" vertex="1" parent="C_MoCRyomVMBf11L0ub7-3">
          <mxGeometry x="399.99999999999955" y="755" width="30" height="30" as="geometry" />
        </mxCell>
        <mxCell id="C_MoCRyomVMBf11L0ub7-30" value="" style="edgeStyle=orthogonalEdgeStyle;html=1;verticalAlign=bottom;endArrow=open;endSize=8;strokeColor=#ff0000;rounded=0;entryX=0;entryY=0.5;entryDx=0;entryDy=0;" edge="1" parent="C_MoCRyomVMBf11L0ub7-3" source="C_MoCRyomVMBf11L0ub7-28" target="C_MoCRyomVMBf11L0ub7-29">
          <mxGeometry relative="1" as="geometry">
            <mxPoint x="509.99999999999955" y="770" as="targetPoint" />
            <Array as="points" />
          </mxGeometry>
        </mxCell>
      </root>
    </mxGraphModel>
  </diagram>
</mxfile>
